<svg width="960" height="960" viewBox="0 0 960 960" fill="none" xmlns="http://www.w3.org/2000/svg">
<path d="M254.626 695.032C193.851 651.054 121.788 613.615 162.366 527.677C251.559 395.838 353.559 204.194 506.514 144.41C568.545 124.491 632.507 153.819 682.017 190.353C873.682 345.53 660.066 602.569 562.948 754.627C525.672 806.635 449.703 793.468 397.942 773.015C366.505 829.856 312.438 932.292 234.106 887.312C149.919 827.565 211.73 756.675 254.626 695.032ZM353.087 336.335C166.906 596.803 137.041 554.944 438.404 705.727C467.1 722.87 524.77 719.968 549.328 697.679C604.036 619.484 647.18 534.685 686.615 447.846C663.19 438.304 656.775 416.008 646.323 394.969C613.08 428.118 595.398 471.921 568.425 509.75C539.503 560.785 461.472 569.235 471.232 494.568C479.14 446.588 517.143 412.376 536.98 369.813C519.131 378.909 502.761 390.999 483.436 395.461C445.809 403.376 431.339 370.597 439.045 337.492C409.39 349.765 380.875 357.537 353.087 336.335ZM289.087 715.605C266.615 754.514 206.679 810.388 258.657 848.25C296.913 870.886 339.747 779.648 355.527 753.051C333.263 740.503 311.699 728.349 289.087 715.605ZM429.006 239.036C431.873 258.396 453.813 267.109 470.764 253.18C548.346 190.494 608.564 239.718 625.738 215.215C635.166 199.778 616.613 187.11 603.69 181.909C548.221 162.543 487.422 185.069 440.772 216.026C433.458 220.817 429.756 228.184 429.006 239.036Z" fill="black"/>
<path d="M74.6261 60.7344C85.3391 60.7254 93.0221 66.4574 99.7961 73.9744C144.606 123.603 188.728 173.87 235.513 221.667C259.039 243.237 231.607 275.432 206.674 257.297C153.415 212.43 110.112 156.289 61.5391 106.391C46.5381 90.9114 48.3501 61.0734 74.6261 60.7344Z" fill="black"/>
<path d="M759.306 815.327C757.2 851.034 711.93 851.575 704.284 818.008C692.052 783.454 679.969 748.845 667.941 714.218C661.78 700.701 662.419 682.11 677.785 675.794C687.148 671.623 698.209 674.096 705.001 682.527C726.386 724.83 744.191 770.348 759.306 815.327Z" fill="black"/>
<path d="M787.184 466.914C812.767 473.438 835.137 488.381 858.654 499.944C874.978 511.15 914.479 525.204 918.373 544.272C924.511 569.81 894.845 583.889 875.234 569.56C841.269 547.648 805.466 528.596 770.987 507.785C754.275 493.489 765.576 467.289 787.184 466.914Z" fill="black"/>
<path d="M101.324 452.625C79.5858 452.009 37.3018 459.405 40.3518 426.014C41.8028 415.963 50.8868 406.368 61.4098 406.679C85.9378 407.406 110.438 409.274 134.927 410.992C162.332 412.993 168.59 450.341 138.192 453.071C125.916 453.469 113.616 453.163 101.326 453.163C101.325 452.985 101.325 452.805 101.324 452.625Z" fill="black"/>
<path d="M895.934 216.031C896.947 235.564 846.823 253.754 830.961 264.624C807.427 277.229 785.642 244.035 806.17 226.895C822.021 214.687 840.223 205.517 857.498 195.48C874.185 185.426 896.416 192.987 895.934 216.031Z" fill="black"/>
<path d="M407.168 129.519C409.42 160.071 375.588 168.446 364.284 143.555C357.285 126.68 350.902 109.492 345.363 92.0853C335.657 65.2803 375.636 47.4043 388.325 72.1493C397.772 91.5003 404.192 112.074 407.168 129.519Z" fill="black"/>
<path d="M353.089 336.336C380.877 357.539 409.392 349.766 439.046 337.493C431.347 370.598 445.806 403.379 483.44 395.461C502.769 390.996 519.122 378.913 536.982 369.814C517.146 412.373 479.139 446.592 471.236 494.571C461.485 569.185 539.464 560.839 568.427 509.75C595.407 471.914 613.072 428.129 646.325 394.97C656.778 416.009 663.192 438.305 686.617 447.847C647.193 534.679 604.033 619.491 549.33 697.678C524.842 719.969 467.007 722.857 438.409 705.719C137.294 555.317 166.962 596.4 353.089 336.336Z" fill="white"/>
<path d="M289.089 715.605C311.701 728.349 333.266 740.503 355.53 753.052C339.879 779.463 296.858 870.953 258.659 848.253C206.687 810.349 266.61 754.566 289.089 715.605Z" fill="white"/>
<path d="M429.008 239.038C429.758 228.186 433.46 220.819 440.775 216.029C487.411 185.072 548.235 162.543 603.694 181.908C616.599 187.107 635.198 199.783 625.739 215.212C609.471 239.547 547.605 190.733 470.768 253.187C453.876 267.09 431.802 258.421 429.008 239.038Z" fill="white"/>
</svg>
