<?xml version="1.0" encoding="UTF-8"?>
<svg id="Layer_1" data-name="Layer 1" xmlns="http://www.w3.org/2000/svg" viewBox="0 0 156.66 63.8">
  <defs>
    <style>
      .cls-1 {
        fill: #414042;
        opacity: .5;
        stroke: #414042;
        stroke-miterlimit: 10;
        stroke-width: 5px;
      }
    </style>
  </defs>
  <path class="cls-1" d="M27.65,15.78h101.36c3.67,0,6.64-2.97,6.64-6.64s-2.97-6.64-6.64-6.64H27.65c-3.67,0-6.64,2.97-6.64,6.64s2.97,6.64,6.64,6.64Z"/>
  <path class="cls-1" d="M147.52,25.26H9.14c-3.67,0-6.64,2.97-6.64,6.64s2.97,6.64,6.64,6.64H147.52c3.67,0,6.64-2.97,6.64-6.64s-2.97-6.64-6.64-6.64Z"/>
  <path class="cls-1" d="M27.65,61.3h101.36c3.67,0,6.64-2.97,6.64-6.64s-2.97-6.64-6.64-6.64H27.65c-3.67,0-6.64,2.97-6.64,6.64s2.97,6.64,6.64,6.64Z"/>
</svg>